<?xml version="1.0" encoding="UTF-8" standalone="no"?>
<svg
   xmlns:dc="http://purl.org/dc/elements/1.1/"
   xmlns:cc="http://creativecommons.org/ns#"
   xmlns:rdf="http://www.w3.org/1999/02/22-rdf-syntax-ns#"
   xmlns:svg="http://www.w3.org/2000/svg"
   xmlns="http://www.w3.org/2000/svg"
   viewBox="0 0 1423.7467 320.02667"
   height="320.02667"
   width="1423.7467"
   xml:space="preserve"
   id="svg2"
   version="1.1"><metadata
     id="metadata8"><rdf:RDF><cc:Work
         rdf:about=""><dc:format>image/svg+xml</dc:format><dc:type
           rdf:resource="http://purl.org/dc/dcmitype/StillImage" /></cc:Work></rdf:RDF></metadata><defs
     id="defs6" /><g
     transform="matrix(1.3333333,0,0,-1.3333333,0,320.02667)"
     id="g10"><g
       transform="scale(0.1)"
       id="g12"><path
         id="path14"
         style="fill:#225986;fill-opacity:1;fill-rule:nonzero;stroke:none"
         d="M 1746.03,721.809 C 1609.54,525.051 1414.25,376.594 1188.18,297.734 c 305.46,10.813 603.94,94.25 870.73,243.411 l -312.88,180.664" /><path
         id="path16"
         style="fill:#609740;fill-opacity:1;fill-rule:nonzero;stroke:none"
         d="m 1369.31,2376.83 c -28.84,8.73 -57.96,16.52 -87.29,23.38 5.45,-2.46 10.88,-4.96 16.29,-7.52 566.07,-266.98 808.53,-942.3 541.56,-1508.362 L 2315.89,609.492 C 2542.54,1358.93 2118.73,2150.19 1369.31,2376.83" /><path
         id="path18"
         style="fill:#225986;fill-opacity:1;fill-rule:nonzero;stroke:none"
         d="M 2207.39,436.621 C 1693.14,79.8711 987.063,207.539 630.32,721.809 L 154.305,446.965 c 535.711,-570.996 1432.835,-599.602 2003.855,-63.906 21.97,20.625 43.26,41.921 63.88,63.906 -4.85,-3.496 -9.74,-6.934 -14.65,-10.344" /><path
         id="path20"
         style="fill:#d02643;fill-opacity:1;fill-rule:nonzero;stroke:none"
         d="M 448.168,1579.47 C 304.781,1309.53 227.809,1009.32 223.602,703.703 L 536.488,884.328 C 434.332,1100.88 403.414,1344.24 448.168,1579.47" /><path
         id="path22"
         style="fill:#d02643;fill-opacity:1;fill-rule:nonzero;stroke:none"
         d="m 37.0664,696.789 c 6.875,-29.336 14.668,-58.449 23.3906,-87.297 -0.5898,5.969 -1.1328,11.914 -1.6367,17.871 C 7.01563,1251.1 470.617,1798.73 1094.32,1850.56 v 549.65 C 332,2221.78 -141.363,1459.13 37.0664,696.789" /><path
         id="path24"
         style="fill:#609740;fill-opacity:1;fill-rule:nonzero;stroke:none"
         d="m 1282.02,2211.84 v -361.28 c 238.62,-19.84 464.82,-114.74 646.16,-271.09 -162.08,259.14 -383.58,475.92 -646.16,632.37" /><path
         id="path26"
         style="fill:#231f20;fill-opacity:1;fill-rule:nonzero;stroke:none"
         d="m 3631.06,1438.47 c -111.63,-48.34 -230.17,-78.25 -351.01,-78.25 -288.87,0 -470.7,170.32 -470.7,422.36 0,225.58 170.32,431.58 500.62,431.58 94.38,0 176.08,-13.8 266.99,-42.58 v -181.84 c -35.67,21.87 -119.68,72.51 -241.67,72.51 -184.15,0 -307.29,-116.25 -307.29,-277.36 0,-146.16 97.82,-279.66 281.97,-279.66 58.69,0 95.53,13.81 123.14,24.17 l 2.29,154.21 h -192.19 l 82.87,146.16 h 307.28 l -2.3,-391.3" /><path
         id="path28"
         style="fill:#231f20;fill-opacity:1;fill-rule:nonzero;stroke:none"
         d="m 3921.08,1380.92 h -212.91 v 812.52 h 212.91 v -812.52" /><path
         id="path30"
         style="fill:#231f20;fill-opacity:1;fill-rule:nonzero;stroke:none"
         d="m 4521.86,1380.92 h -492.57 v 812.52 H 4242.2 V 1543.2 h 374.04 l -94.38,-162.28" /><path
         id="path32"
         style="fill:#231f20;fill-opacity:1;fill-rule:nonzero;stroke:none"
         d="m 4641.54,2193.44 h 345.26 c 115.1,0 254.36,-54.09 254.36,-212.91 0,-82.85 -44.9,-139.26 -123.15,-173.77 19.56,-8.06 46.04,-17.26 70.2,-34.53 49.48,-33.38 81.7,-92.07 81.7,-158.82 0,-66.75 -31.05,-132.35 -89.74,-177.24 -67.91,-52.92 -143.87,-55.25 -202.58,-55.25 h -336.05 z m 203.72,-435.03 73.64,108.19 c 16.13,0 34.55,0 52.97,4.6 50.62,12.66 73.63,48.34 73.63,86.32 0,74.8 -66.75,85.16 -121.99,85.16 h -78.25 z m 0,-229.01 h 84.01 c 78.26,0 130.05,32.22 130.05,105.87 0,90.92 -80.57,105.89 -161.12,105.89 h -52.94 V 1529.4" /><path
         id="path34"
         style="fill:#231f20;fill-opacity:1;fill-rule:nonzero;stroke:none"
         d="m 6104.32,1380.92 h -224.43 l -55.26,162.28 h -290 l -58.69,-162.28 h -210.62 l 319.96,812.52 h 206.01 z m -322.25,287.73 -86.3,256.64 c -5.77,18.42 -8.09,24.17 -11.53,44.89 -8.04,-25.33 -8.04,-27.63 -12.65,-40.29 l -93.25,-261.24 h 203.73" /><path
         id="path36"
         style="fill:#231f20;fill-opacity:1;fill-rule:nonzero;stroke:none"
         d="m 6868.49,1380.92 h -231.36 l -207.14,344.12 c -40.27,-2.3 -46.03,-2.3 -92.08,-2.3 v -341.82 h -207.12 v 812.52 h 368.26 c 126.6,0 260.11,-66.76 260.11,-226.72 0,-33.38 -6.93,-65.59 -20.74,-94.37 -28.79,-64.44 -77.11,-93.21 -103.57,-109.34 z m -530.58,359.08 80.55,113.93 c 25.35,1.15 41.45,1.15 59.86,5.76 42.59,10.36 72.5,44.88 72.5,92.07 0,36.84 -18.41,61 -35.67,72.5 -26.47,19.57 -65.58,19.57 -110.46,19.57 h -66.78 V 1740" /><path
         id="path38"
         style="fill:#231f20;fill-opacity:1;fill-rule:nonzero;stroke:none"
         d="m 7416.28,1382.09 c -29.91,-8.06 -80.55,-21.87 -170.3,-21.87 -291.17,0 -462.68,182.98 -462.68,417.76 0,229.03 162.3,436.18 477.61,436.18 92.08,0 162.3,-17.26 217.54,-33.37 V 2000.1 c -28.78,18.42 -95.52,61 -192.2,61 -179.55,0 -281.97,-125.45 -281.97,-273.91 0,-156.52 110.5,-278.51 299.22,-278.51 72.51,0 145.01,16.11 211.79,43.73 l -99.01,-170.32" /><path
         id="path40"
         style="fill:#231f20;fill-opacity:1;fill-rule:nonzero;stroke:none"
         d="m 7950.3,1360.22 c -283.13,0 -449.98,182.98 -449.98,426.97 0,238.22 168.01,426.97 445.38,426.97 280.8,0 443.05,-194.51 443.05,-422.37 0,-224.42 -155.33,-431.57 -438.45,-431.57 z m 214.06,424.67 c 0,156.51 -82.87,272.75 -218.66,272.75 -133.52,0 -220.99,-115.09 -220.99,-269.3 0,-149.61 82.87,-267 220.99,-267 150.77,0 218.66,140.4 218.66,263.55" /><path
         id="path42"
         style="fill:#231f20;fill-opacity:1;fill-rule:nonzero;stroke:none"
         d="m 3286.18,206.777 h -187.59 l -323.4,812.503 h 231.33 l 194.5,-559.319 200.25,559.319 h 212.9 L 3286.18,206.777" /><path
         id="path44"
         style="fill:#231f20;fill-opacity:1;fill-rule:nonzero;stroke:none"
         d="M 4142.43,206.777 H 3646.4 v 812.503 h 527.11 V 859.301 H 3858.16 V 703.945 h 270.46 V 545.137 H 3858.16 V 367.891 h 376.34 l -92.07,-161.114" /><path
         id="path46"
         style="fill:#231f20;fill-opacity:1;fill-rule:nonzero;stroke:none"
         d="m 4761.61,206.777 h -496.03 v 812.503 h 527.09 V 859.301 H 4477.32 V 703.945 H 4747.8 V 545.137 H 4477.32 V 367.891 h 376.34 l -92.05,-161.114" /><path
         id="path48"
         style="fill:#231f20;fill-opacity:1;fill-rule:nonzero;stroke:none"
         d="m 4884.74,1019.28 h 363.69 c 225.55,0 402.78,-144.999 402.78,-399.339 0,-116.25 -41.44,-223.281 -113.94,-296.933 -110.49,-111.621 -241.68,-116.231 -332.6,-116.231 h -319.93 z m 210.6,-655.999 h 59.85 c 44.88,0 92.07,1.153 140.4,23.028 103.6,47.187 131.19,148.476 131.19,227.871 0,153.066 -97.8,245.121 -245.13,247.445 h -86.31 V 363.281" /><path
         id="path50"
         style="fill:#231f20;fill-opacity:1;fill-rule:nonzero;stroke:none"
         d="m 6193.27,206.777 h -496.02 v 812.503 h 527.09 V 859.301 H 5908.99 V 703.945 h 270.47 V 545.137 H 5908.99 V 367.891 h 376.37 l -92.09,-161.114" /><path
         id="path52"
         style="fill:#231f20;fill-opacity:1;fill-rule:nonzero;stroke:none"
         d="m 7054.13,206.777 h -231.35 l -207.14,344.102 c -40.28,-2.285 -46.05,-2.285 -92.08,-2.285 V 206.777 h -207.14 v 812.503 h 368.27 c 126.6,0 260.11,-66.737 260.11,-226.721 0,-33.379 -6.92,-65.586 -20.73,-94.356 -28.79,-64.453 -77.11,-93.242 -103.58,-109.336 z m -530.57,359.082 80.55,113.926 c 25.35,1.153 41.44,1.153 59.85,5.742 42.59,10.352 72.51,44.903 72.51,92.071 0,36.816 -18.42,60.996 -35.68,72.5 -26.46,19.574 -65.57,19.574 -110.45,19.574 h -66.78 V 565.859" /><path
         id="path54"
         style="fill:#231f20;fill-opacity:1;fill-rule:nonzero;stroke:none"
         d="M 7384.35,535.859 H 7043.7 l 86.3,126.582 h 340.66 l -86.31,-126.582" /><path
         id="path56"
         style="fill:#231f20;fill-opacity:1;fill-rule:nonzero;stroke:none"
         d="m 8288.85,206.777 h -231.32 l -207.17,344.102 c -40.28,-2.285 -46.04,-2.285 -92.09,-2.285 V 206.777 h -207.13 v 812.503 h 368.28 c 126.58,0 260.1,-66.737 260.1,-226.721 0,-33.379 -6.93,-65.586 -20.74,-94.356 -28.75,-64.453 -77.11,-93.242 -103.57,-109.336 z m -530.58,359.082 80.59,113.926 c 25.3,1.153 41.44,1.153 59.82,5.742 42.59,10.352 72.53,44.903 72.53,92.071 0,36.816 -18.41,60.996 -35.7,72.5 -26.46,19.574 -65.58,19.574 -110.46,19.574 h -66.78 V 565.859" /><path
         id="path58"
         style="fill:#231f20;fill-opacity:1;fill-rule:nonzero;stroke:none"
         d="m 8676.66,186.055 c -283.12,0 -449.99,182.988 -449.99,426.972 0,238.223 168.03,426.993 445.39,426.993 280.8,0 443.1,-194.532 443.1,-422.383 0,-224.414 -155.37,-431.582 -438.5,-431.582 z m 214.07,424.668 c 0,156.523 -82.87,272.757 -218.67,272.757 -133.47,0 -220.95,-115.101 -220.95,-269.3 0,-149.61 82.87,-266.992 220.95,-266.992 150.76,0 218.67,140.39 218.67,263.535" /><path
         id="path60"
         style="fill:#231f20;fill-opacity:1;fill-rule:nonzero;stroke:none"
         d="m 9607.84,186.055 c -283.11,0 -450.02,182.988 -450.02,426.972 0,238.223 168.03,426.993 445.43,426.993 280.8,0 443.05,-194.532 443.05,-422.383 0,-224.414 -155.37,-431.582 -438.46,-431.582 z m 214.04,424.668 c 0,156.523 -82.83,272.757 -218.63,272.757 -133.52,0 -220.99,-115.101 -220.99,-269.3 0,-149.61 82.87,-266.992 220.99,-266.992 150.73,0 218.63,140.39 218.63,263.535" /><path
         id="path62"
         style="fill:#231f20;fill-opacity:1;fill-rule:nonzero;stroke:none"
         d="m 10448,206.777 h -211.8 V 858.16 h -232.5 v 161.12 h 674.4 V 858.16 H 10448 V 206.777" /><path
         id="path64"
         style="fill:#231f20;fill-opacity:1;fill-rule:nonzero;stroke:none"
         d="M 10678.1,1202.07 H 2780.58 v 31.75 h 7897.52 v -31.75" /><path
         id="path66"
         style="fill:#231f20;fill-opacity:1;fill-rule:nonzero;stroke:none"
         d="M 2155.89,105.617 H 2118.3 V 2.12891 h -23.85 V 105.617 h -37.57 v 19.375 h 99.01 z m 93.33,-67.7029 33.4,87.0779 h 34.3 V 2.12891 h -22.37 V 98.1602 h -0.59 L 2257.28,2.12891 h -16.7 l -36.69,96.03129 h -0.59 V 2.12891 h -22.37 V 124.992 h 34.59 l 33.7,-87.0779" /></g></g></svg>